<?xml version="1.0" encoding="UTF-8" standalone="no" ?>
<!DOCTYPE svg PUBLIC "-//W3C//DTD SVG 1.1//EN" "http://www.w3.org/Graphics/SVG/1.1/DTD/svg11.dtd">
<svg xmlns="http://www.w3.org/2000/svg" xmlns:xlink="http://www.w3.org/1999/xlink" version="1.1" width="500" height="500" viewBox="0 0 500 500" xml:space="preserve">
<desc>Created with Fabric.js 3.6.3</desc>
<defs>
</defs>
<rect x="0" y="0" width="100%" height="100%" fill="#ffffff"></rect>
<g transform="matrix(3.416470588235294 0 0 3.416470588235294 249.28720389957257 236.66)"  >
<path style="stroke: none; stroke-width: 0; stroke-dasharray: none; stroke-linecap: butt; stroke-dashoffset: 0; stroke-linejoin: miter; stroke-miterlimit: 4; fill: rgb(201,226,101); fill-rule: nonzero; opacity: 1;"  transform=" translate(-210, -570)" d="M 176 582.99463 L 176 572 C 176 565.920482 180.920605 561 187.008974 561 L 188.38161 561 C 190.618328 556.42894 194.455745 554 200 554 C 203.80259 554 206.144989 554.845327 209.253084 556.809246 C 209.359754 556.876648 209.943002 557.247912 210.105336 557.350023 C 211.18902 558.031681 212.024247 558.466821 212.866734 558.718051 C 212.762609 556.877485 212.899079 554.910505 213.417946 552.988909 C 205.46795 552.685418 199.093308 546.191561 199.001012 538.175788 C 198.98955 537.180342 199.711946 536.328015 200.695809 536.176165 C 201.453964 536.05915 202.223634 536 203 536 C 209.83281 536 215.606124 540.571343 217.413183 546.831071 C 218.356909 546.142879 219.444434 545.588548 220.647092 545.151217 C 222.044768 544.642971 223.51818 544.3215 224.987643 544.143383 C 225.871019 544.036307 226.569929 544 227 544 C 228.104569 544 229 544.895431 229 546 C 229 547.104569 228.104569 548 227 548 C 226.944956 548 226.813307 548.003191 226.61654 548.013413 C 226.273181 548.03125 225.886752 548.063678 225.468969 548.114318 C 224.28089 548.258328 223.096761 548.516683 222.014065 548.910391 C 220.498966 549.461336 219.330279 550.226295 218.6 551.2 C 218.05018 551.933093 217.63337 552.810588 217.341875 553.81 C 216.870439 555.42635 216.761868 557.183915 216.879887 558.78801 C 217.811116 558.551439 218.702593 558.099888 219.894749 557.35001 C 220.057087 557.247897 220.64034 556.876636 220.747003 556.809239 C 223.855106 554.845343 226.197476 554.000023 229.999988 554 C 239.504359 553.999944 244 561.172387 244 574 C 244 587.408824 235.860517 604 227 604 C 223.372788 604 221.166521 603.644441 218.968057 602.892326 C 218.71351 602.805243 217.925061 602.521835 217.785288 602.473565 C 216.794639 602.131453 216.106521 602 215 602 C 213.893897 602 213.205886 602.131423 212.215476 602.473424 C 212.07559 602.521728 211.286835 602.805233 211.032204 602.892339 C 208.833653 603.644433 206.627216 604 203 604 C 198.503476 604 194.405494 600.174848 191.177854 594 L 187.008974 594 C 180.920338 594 176 589.076849 176 582.99463 Z M 189 575.999905 C 185.961936 575.999981 183.995651 576 183.995651 576 C 182.480725 576 181.117203 575.582778 180 574.860473 L 180 582.99463 C 180 586.868222 183.129989 590 187.008974 590 L 221.993859 590 C 221.997214 590 222 575.995678 222 575.995678 C 221.999963 575.996928 218.198418 575.99782 213 575.998455 L 213 579 C 213 580.104569 212.104569 581 211 581 C 209.895431 581 209 580.104569 209 579 L 209 575.998873 C 207.061902 575.999048 205.030967 575.999196 203 575.999321 L 203 579 C 203 580.104569 202.104569 581 201 581 C 199.895431 581 199 580.104569 199 579 L 199 575.999541 C 196.894838 575.999644 194.858242 575.999725 193 575.999787 L 193 579 C 193 580.104569 192.104569 581 191 581 C 189.895431 581 189 580.104569 189 579 L 189 575.999905 L 189 575.999905 Z M 203 600 C 206.193325 600 207.962348 599.714922 209.737518 599.107661 C 209.954824 599.033324 210.736299 598.752435 210.909875 598.692497 C 212.295996 598.213853 213.415532 598 215 598 C 216.584921 598 217.704599 598.213895 219.090989 598.692673 C 219.264426 598.752568 220.045581 599.033354 220.262822 599.107674 C 222.037879 599.714939 223.806705 600 227 600 C 232.876033 600 240 585.478808 240 574 C 240 563.102641 236.801673 557.99996 230.000012 558 C 227.059917 558.000017 225.406372 558.596753 222.883663 560.190761 C 222.786016 560.25246 222.198036 560.626731 222.0245 560.735886 C 219.505723 562.320223 217.700065 563 215 563 C 212.299945 563 210.494304 562.320222 207.975563 560.735886 C 207.802031 560.626731 207.214057 560.252459 207.116403 560.190754 C 204.593713 558.596736 202.940159 558 200 558 C 193.619277 558 190.417411 562.458444 190.038297 572 L 221.993859 572 C 224.204042 572 226 573.785688 226 575.995089 L 226 590.004911 C 226 592.213807 224.203874 594 221.993859 594 L 195.773659 594 C 198.125079 597.825589 200.732262 600 203 600 Z M 186.958388 565.000178 L 186.958388 565.000178 C 184.388958 565.018214 182.154029 566.409342 180.948761 568.475847 C 180.643971 570.492134 181.941753 572 183.995651 572 L 186.038096 572 C 186.139658 569.401775 186.444713 567.063884 186.958388 565.000178 Z M 213.818478 548.998532 C 212.887766 543.933512 208.488201 540.087382 203.181522 540.001468 C 204.112234 545.066488 208.511799 548.912618 213.818478 548.998532 Z" stroke-linecap="round" />
</g>
<g transform="matrix(0.8206357577733642 0 0 0.8206357577733642 249.96000000000004 326.8916599986961)"  >
<path style="stroke: none; stroke-width: 1; stroke-dasharray: none; stroke-linecap: butt; stroke-dashoffset: 0; stroke-linejoin: miter; stroke-miterlimit: 4; fill: rgb(255,255,255); fill-rule: nonzero; opacity: 1;"  transform=" translate(-249.95000000000002, -250)" d="M 76.9 288.8 h 346.2 c 21.4 0 38.8 -17.4 38.8 -38.8 v 0 c 0 -21.4 -17.4 -38.8 -38.8 -38.8 H 76.9 C 55.4 211.2 38 228.6 38 250 v 0 C 38 271.4 55.4 288.8 76.9 288.8 z" stroke-linecap="round" />
</g>
<g transform="matrix(1,0,0,1,256.36352737855333,327.17215999869615)" style=""  ><path fill="#000000" opacity="1" d="M-79.06 2.80L-79.06-10.57L-73.72-10.57L-73.72 3.39Q-73.72 4.96-74.15 6.15Q-74.58 7.34-75.53 8.14Q-76.48 8.94-78.01 9.36Q-79.54 9.78-81.73 9.78L-81.73 9.78Q-82.60 9.78-83.53 9.70Q-84.47 9.63-85.21 9.48L-85.21 9.48L-85.21 4.58Q-84.50 4.82-83.59 4.92Q-82.68 5.02-81.91 5.02L-81.91 5.02Q-80.90 5.02-80.32 4.87Q-79.74 4.73-79.46 4.44Q-79.18 4.16-79.12 3.75Q-79.06 3.33-79.06 2.80L-79.06 2.80Z"/><path fill="#000000" opacity="1" d=""/><path fill="#000000" opacity="1" d="M-35.43 9.33L-54.47 9.33L-54.47-10.57L-49.12-10.57L-49.12 4.58L-35.43 4.58L-35.43 9.33Z"/><path fill="#000000" opacity="1" d="M-9.03-10.57L-9.03-5.82L-22.72-5.82L-22.72-2.85L-12.00-2.85L-12.00 1.90L-22.72 1.90L-22.72 4.58L-9.03 4.58L-9.03 9.33L-28.07 9.33L-28.07-10.57L-9.03-10.57Z"/><path fill="#000000" opacity="1" d="M15.89-10.57L20.70-10.57L20.70-9.38L11.85 9.33L6.50 9.33L-2.35-9.38L-2.35-10.57L2.47-10.57L9.18 4.58L15.89-10.57Z"/><path fill="#000000" opacity="1" d="M46.69-10.57L46.69-5.82L33.00-5.82L33.00-2.85L43.72-2.85L43.72 1.90L33.00 1.90L33.00 4.58L46.69 4.58L46.69 9.33L27.65 9.33L27.65-10.57L46.69-10.57Z"/><path fill="#000000" opacity="1" d="M73.09 9.33L54.05 9.33L54.05-10.57L59.40-10.57L59.40 4.58L73.09 4.58L73.09 9.33Z"/><path fill="#000000" opacity="1" d=""/></g>
<g transform="matrix(0.93 0 0 -1.42 249.57596833807344 356.45905967706966)"  >
<path style="stroke: none; stroke-width: 1; stroke-dasharray: none; stroke-linecap: butt; stroke-dashoffset: 0; stroke-linejoin: miter; stroke-miterlimit: 4; fill: rgb(201,226,101); fill-rule: nonzero; opacity: 1;"  transform=" translate(-49.95, -50)" d="M 91.7 49 H 8.3 c -0.6 0 -1 0.4 -1 1 s 0.4 1 1 1 h 83.3 c 0.6 0 1 -0.4 1 -1 S 92.2 49 91.7 49 z" stroke-linecap="round" />
</g>
<g transform="matrix(1,0,0,1,250.4923901169464,374.9941773153828)" style=""  ><path fill="#000000" opacity="1" d="M-39.17-4.48L-34.75 0.93L-34.75-4.48L-32.48-4.48L-32.48 3.96L-34.75 3.96L-39.17-1.46L-39.17 3.96L-41.44 3.96L-41.44-4.48L-39.17-4.48Z"/><path fill="#000000" opacity="1" d="M-23.98-4.48L-21.71-4.48L-21.71 0.44Q-21.71 1.22-21.91 1.90Q-22.11 2.58-22.60 3.10Q-23.10 3.62-23.93 3.91Q-24.76 4.21-26.02 4.21L-26.02 4.21L-26.47 4.21Q-27.73 4.21-28.56 3.91Q-29.40 3.62-29.89 3.10Q-30.38 2.58-30.58 1.90Q-30.78 1.22-30.78 0.44L-30.78 0.44L-30.78-4.48L-28.51-4.48L-28.51 0.12Q-28.51 0.53-28.48 0.90Q-28.44 1.27-28.23 1.56Q-28.02 1.85-27.56 2.02Q-27.10 2.19-26.25 2.19L-26.25 2.19Q-25.40 2.19-24.94 2.02Q-24.47 1.85-24.26 1.56Q-24.05 1.27-24.02 0.90Q-23.98 0.53-23.98 0.12L-23.98 0.12L-23.98-4.48Z"/><path fill="#000000" opacity="1" d="M-14.87 3.96L-17.14 3.96L-17.14-2.47L-20.41-2.47L-20.41-4.48L-11.58-4.48L-11.58-2.47L-14.87-2.47L-14.87 3.96Z"/><path fill="#000000" opacity="1" d="M-1.56 3.96L-3.75 3.96L-5.44 1.31Q-6.12 1.31-6.75 1.30Q-7.38 1.29-7.99 1.19L-7.99 1.19L-7.99 3.96L-10.26 3.96L-10.26-4.48Q-9.17-4.61-7.98-4.67Q-6.79-4.74-5.64-4.74L-5.64-4.74L-5.29-4.74Q-4.23-4.74-3.54-4.52Q-2.85-4.29-2.43-3.92Q-2.02-3.54-1.85-3.03Q-1.69-2.53-1.69-1.96L-1.69-1.96L-1.69-1.46Q-1.69-0.67-2.00-0.02Q-2.32 0.63-3.12 0.98L-3.12 0.98L-1.56 3.45L-1.56 3.96ZM-5.62-2.72L-5.62-2.72Q-6.06-2.72-6.71-2.69Q-7.36-2.67-7.99-2.61L-7.99-2.61L-7.99-0.82Q-7.40-0.74-6.87-0.72Q-6.34-0.70-6.01-0.70L-6.01-0.70Q-5.25-0.70-4.84-0.77Q-4.42-0.84-4.23-0.98Q-4.03-1.12-3.99-1.33Q-3.96-1.55-3.96-1.85L-3.96-1.85Q-3.96-2.01-3.98-2.17Q-4.01-2.33-4.16-2.46Q-4.32-2.58-4.66-2.65Q-5.00-2.72-5.62-2.72Z"/><path fill="#000000" opacity="1" d="M0.09-4.48L2.36-4.48L2.36 3.96L0.09 3.96L0.09-4.48Z"/><path fill="#000000" opacity="1" d="M9.22 3.96L6.96 3.96L6.96-2.47L3.68-2.47L3.68-4.48L12.51-4.48L12.51-2.47L9.22-2.47L9.22 3.96Z"/><path fill="#000000" opacity="1" d="M13.83-4.48L16.10-4.48L16.10 3.96L13.83 3.96L13.83-4.48Z"/><path fill="#000000" opacity="1" d="M17.74 0.06L17.74-0.59Q17.74-1.45 17.95-2.20Q18.17-2.96 18.70-3.52Q19.24-4.08 20.15-4.41Q21.05-4.74 22.43-4.74L22.43-4.74L22.88-4.74Q24.25-4.74 25.16-4.41Q26.07-4.08 26.60-3.52Q27.14-2.96 27.35-2.20Q27.57-1.45 27.57-0.59L27.57-0.59L27.57 0.06Q27.57 0.92 27.35 1.68Q27.14 2.43 26.60 2.99Q26.07 3.55 25.16 3.88Q24.25 4.21 22.88 4.21L22.88 4.21L22.43 4.21Q21.05 4.21 20.15 3.88Q19.24 3.55 18.70 2.99Q18.17 2.43 17.95 1.68Q17.74 0.92 17.74 0.06L17.74 0.06ZM20.01-0.26L20.01-0.26Q20.01 0.22 20.05 0.66Q20.10 1.11 20.34 1.45Q20.59 1.79 21.12 1.99Q21.66 2.19 22.65 2.19L22.65 2.19Q23.65 2.19 24.19 1.99Q24.72 1.79 24.97 1.45Q25.21 1.11 25.26 0.66Q25.30 0.22 25.30-0.26L25.30-0.26Q25.30-0.74 25.26-1.18Q25.21-1.62 24.97-1.96Q24.72-2.30 24.19-2.51Q23.65-2.71 22.65-2.71L22.65-2.71Q21.66-2.71 21.12-2.51Q20.59-2.30 20.34-1.96Q20.10-1.62 20.05-1.18Q20.01-0.74 20.01-0.26Z"/><path fill="#000000" opacity="1" d="M31.47-4.48L35.90 0.93L35.90-4.48L38.17-4.48L38.17 3.96L35.90 3.96L31.47-1.46L31.47 3.96L29.21 3.96L29.21-4.48L31.47-4.48Z"/><path fill="#000000" opacity="1" d=""/></g>
</svg>