<svg id="Layer_1" data-name="Layer 1" xmlns="http://www.w3.org/2000/svg" viewBox="0 0 495.29 372.07"><defs><style>.cls-1{fill:#c9e265;}</style></defs><path class="cls-1" d="M395.69,195c-27.69,0-44.76,6.14-67.4,20.44l-6.2,3.94c-8.68,5.46-15.18,8.76-22,10.47a104.48,104.48,0,0,1,3.37-36.24,58.62,58.62,0,0,1,9.17-19c5.31-7.1,13.83-12.66,24.85-16.67a114.35,114.35,0,0,1,25.18-5.8c3-.36,5.84-.62,8.35-.74h2.79a14.58,14.58,0,0,0,0-29.14,133.07,133.07,0,0,0-14.66,1,144.6,144.6,0,0,0-31.61,7.34A95.43,95.43,0,0,0,304,142.84,109.39,109.39,0,0,0,182.28,65.25a14.56,14.56,0,0,0-12.34,14.56,109.19,109.19,0,0,0,105,107.88,132.77,132.77,0,0,0-4.09,41.73,82.2,82.2,0,0,1-20.11-10l-6.2-3.94c-22.64-14.31-39.69-20.45-67.4-20.45-40.37,0-68.31,17.67-84.6,51H82.42a80.07,80.07,0,0,0-80.06,80.1v80.19A79.55,79.55,0,0,0,8.09,436h33a50.74,50.74,0,0,1-9.62-29.82V347a53.24,53.24,0,0,0,29.1,8.29H97v21.85a14.58,14.58,0,0,0,29.14,0V355.27h43.69v21.85a14.56,14.56,0,0,0,29.12,0V355.27h43.7V377.1a14.58,14.58,0,0,0,29.14,0V355.23h65.48V436h29.29V355.1a29.15,29.15,0,0,0-29.29-29H104.65c2.68-69.49,26-102,72.47-102,21.42,0,33.47,4.35,51.84,16l6.25,4c18.35,11.53,31.5,16.48,51.15,16.48s32.81-4.95,51.16-16.48l6.25-3.92c18.37-11.7,30.41-16,51.84-16,49.51,0,72.81,37.18,72.81,116.54,0,30.88-7.08,64.82-18.18,95.3h31.21c10.23-31.06,16.19-64.4,16.19-95.41C497.64,247.2,464.9,195,395.69,195ZM75.42,326.05H60.5c-14.94,0-24.32-10.89-22.19-25.58a51,51,0,0,1,43.85-25.28A253.55,253.55,0,0,0,75.42,326.05ZM200.31,93.11a80.13,80.13,0,0,1,77.44,65.53A80.15,80.15,0,0,1,200.31,93.11Z" transform="translate(-2.36 -63.96)"/></svg>